<?xml version="1.0" standalone="no"?>
<!DOCTYPE svg PUBLIC "-//W3C//DTD SVG 20010904//EN"
 "http://www.w3.org/TR/2001/REC-SVG-20010904/DTD/svg10.dtd">
<svg version="1.0" xmlns="http://www.w3.org/2000/svg"
 width="700.000000pt" height="700.000000pt" viewBox="0 0 700.000000 700.000000"
 preserveAspectRatio="xMidYMid meet">
<metadata>
Created by potrace 1.14, written by Peter Selinger 2001-2017
</metadata>
<g transform="translate(0.000000,700.000000) scale(0.100000,-0.100000)"
fill="#000000" stroke="none">
<path d="M205 6988 c-34 -18 -67 -52 -77 -78 -6 -16 -10 -1200 -10 -3293 0
-3189 1 -3268 19 -3304 12 -22 35 -45 58 -57 38 -19 60 -20 2500 -20 l2462 0
35 22 c67 41 87 130 45 193 -42 63 -66 69 -304 69 l-211 0 0 938 0 938 218 1
c205 0 220 1 253 22 69 43 88 151 36 208 -22 22 -71 54 -84 53 -3 0 -99 0
-214 0 l-209 0 0 938 0 938 936 0 937 -1 3 -203 c3 -223 7 -243 63 -282 41
-30 119 -32 157 -3 15 11 35 34 45 52 18 30 19 87 19 1397 0 1542 6 1424 -77
1464 -41 20 -51 20 -3311 20 -2369 -1 -3275 -4 -3289 -12z m2072 -1210 l1
-938 -938 0 -938 0 0 938 -1 938 937 0 937 -1 2 -937z m2160 0 l1 -938 -938 0
-937 0 -1 938 0 938 937 0 936 -1 2 -937z m2161 0 l0 -938 -938 0 -938 0 0
938 0 938 938 0 938 0 0 -938z m-4321 -2160 l1 -938 -938 0 -938 0 0 932 c0
513 2 936 3 939 2 3 424 5 937 5 l933 -1 2 -937z m2161 0 l0 -938 -936 2 -937
3 -1 936 -2 935 938 0 938 0 0 -938z m-2161 -2160 l2 -938 -938 0 -939 0 0
932 c0 513 1 935 3 939 2 3 424 5 937 5 l933 -1 2 -937z m2158 2 l0 -935 -937
-3 -936 -2 0 938 0 938 937 0 936 -1 0 -935z"/>
<path d="M1364 6466 c-27 -12 -76 -54 -200 -171 -23 -22 -98 -93 -167 -158
-88 -82 -129 -129 -137 -153 -39 -119 89 -227 197 -166 17 9 71 54 120 100 48
45 90 82 93 82 3 0 5 -179 4 -397 -1 -428 0 -442 51 -488 48 -45 149 -41 191
8 41 47 41 53 40 662 -1 487 -3 594 -15 615 -20 35 -62 70 -86 71 -11 0 -29 2
-40 4 -11 2 -34 -2 -51 -9z"/>
<path d="M2967 4269 c-73 -12 -120 -67 -119 -141 1 -50 26 -91 72 -117 37 -20
50 -21 449 -21 454 0 455 0 487 -62 30 -57 7 -126 -53 -157 -14 -7 -105 -11
-273 -11 -277 0 -300 -4 -340 -59 -56 -80 -13 -200 79 -218 20 -3 144 -7 276
-8 132 -1 249 -5 260 -10 47 -20 73 -78 60 -135 -8 -34 -57 -80 -88 -81 -12
-1 -200 -2 -417 -4 -217 -1 -403 -3 -412 -4 -28 -2 -83 -57 -94 -93 -20 -65
10 -136 71 -171 29 -17 862 -19 925 -2 137 36 246 139 287 273 32 105 9 255
-53 338 l-23 31 20 29 c66 97 87 205 63 314 -32 140 -124 243 -262 292 -54 20
-81 21 -468 22 -226 1 -427 -2 -447 -5z"/>
<path d="M6234 3915 c-18 -8 -41 -25 -51 -39 -11 -14 -40 -49 -65 -78 -26 -29
-113 -132 -194 -228 -82 -96 -157 -184 -167 -195 -54 -58 -50 52 -51 -1675 0
-1510 1 -1597 18 -1625 10 -17 30 -39 44 -50 26 -19 45 -20 497 -23 259 -2
484 0 502 3 39 7 91 49 105 84 14 38 13 3186 -1 3224 -10 26 -186 242 -250
309 -14 14 -37 41 -51 59 -14 18 -31 39 -38 46 -8 7 -41 46 -74 86 -92 111
-147 135 -224 102z m187 -495 c176 -206 179 -210 179 -229 0 -16 -23 -17 -305
-17 l-306 0 3 22 c2 18 298 379 304 371 1 -1 57 -67 125 -147z m177 -1542 l1
-1013 -302 0 -302 0 -3 1013 -2 1012 304 0 304 0 0 -1012z m-11 -1297 c10 -1
12 -37 10 -148 l-2 -148 -302 -1 -303 0 0 147 0 148 28 3 c21 2 515 1 569 -1z"/>
</g>
</svg>
